<svg width="25" height="24" viewBox="0 0 25 24" fill="none" xmlns="http://www.w3.org/2000/svg">
<path d="M14.5381 15.4399H9.53809" stroke="white" stroke-width="1.5" stroke-miterlimit="10" stroke-linecap="round" stroke-linejoin="round"/>
<path d="M12.0381 13V18" stroke="white" stroke-width="1.5" stroke-miterlimit="10" stroke-linecap="round" stroke-linejoin="round"/>
<path d="M12.0381 21.9998H8.13809C7.89809 21.9998 7.65809 21.9798 7.42809 21.9498C4.24809 21.7398 2.54809 20.0398 2.33809 16.8598C2.30809 16.6298 2.28809 16.3898 2.28809 16.1498V14.1998C2.28809 12.1898 3.50809 10.4598 5.24809 9.70982C5.84809 9.45982 6.48809 9.31982 7.16809 9.31982H16.9281C17.4181 9.31982 17.8981 9.38982 18.3381 9.51982C20.3381 10.1198 21.7981 11.9898 21.7981 14.1898V16.1398C21.7981 16.3398 21.7881 16.5398 21.7781 16.7398C21.5881 20.2398 19.6381 21.9998 15.9381 21.9998" stroke="white" stroke-width="1.5" stroke-linecap="round" stroke-linejoin="round"/>
<path d="M12.9381 2.52009L12.9081 2.59009L10.0081 9.32009H7.15808C6.47808 9.32009 5.82808 9.46009 5.23808 9.71009L6.98808 5.53009L7.02808 5.43009L7.09808 5.27009C7.11808 5.21009 7.13808 5.15009 7.16808 5.10009C8.47808 2.07009 9.95808 1.38009 12.9381 2.52009Z" stroke="white" stroke-width="1.5" stroke-linecap="round" stroke-linejoin="round"/>
<path d="M18.3281 9.52002C17.8781 9.38002 17.3981 9.32002 16.9181 9.32002H10.0081L12.9081 2.59002L12.9381 2.52002C13.0881 2.57002 13.2281 2.64002 13.3781 2.70002L15.5881 3.63002C16.8181 4.14002 17.6781 4.67002 18.1981 5.31002C18.2981 5.43002 18.3781 5.54002 18.4481 5.67002C18.5381 5.81002 18.6081 5.95002 18.6481 6.10002C18.6881 6.19002 18.7181 6.28002 18.7381 6.36002C19.0081 7.20002 18.8481 8.23002 18.3281 9.52002Z" stroke="white" stroke-width="1.5" stroke-linecap="round" stroke-linejoin="round"/>
<path d="M6.98809 5.52979L5.23809 9.70978C3.49809 10.4598 2.27809 12.1898 2.27809 14.1998V11.2698C2.27809 8.42979 4.29809 6.05979 6.98809 5.52979Z" stroke="white" stroke-width="1.5" stroke-linecap="round" stroke-linejoin="round"/>
<path d="M21.7981 11.2701V14.2001C21.7981 12.0001 20.3381 10.1301 18.3381 9.5301C18.8581 8.2301 19.0081 7.2101 18.7581 6.3601C18.7381 6.2701 18.7081 6.1801 18.6681 6.1001C20.5281 7.0601 21.7981 9.0301 21.7981 11.2701Z" stroke="white" stroke-width="1.5" stroke-linecap="round" stroke-linejoin="round"/>
</svg>
