<svg width="171" height="20" viewBox="0 0 171 20" fill="none" xmlns="http://www.w3.org/2000/svg">
<path d="M14.6311 5.37586C14.0973 4.84206 13.4583 4.42958 12.7142 4.13841C11.9782 3.84724 11.1897 3.70166 10.3485 3.70166C9.50737 3.70166 8.73902 3.84724 8.04346 4.13841C7.34789 4.42958 6.74939 4.8461 6.24793 5.388C5.74648 5.92989 5.35826 6.57692 5.08327 7.3291C4.80828 8.07319 4.67079 8.90625 4.67079 9.82828C4.67079 10.7503 4.80828 11.5955 5.08327 12.3638C5.36635 13.1322 5.76266 13.7954 6.2722 14.3535C6.78983 14.9035 7.40047 15.3321 8.10412 15.6395C8.81586 15.9468 9.60039 16.1005 10.4577 16.1005C11.1694 16.1005 11.8205 15.9913 12.4109 15.7729C13.0095 15.5545 13.5352 15.2432 13.9881 14.8388C14.441 14.4344 14.8131 13.945 15.1042 13.3708C15.4035 12.7965 15.6097 12.1536 15.723 11.4418H10.4456V8.59082H19.0107L19.1199 9.99812C19.1199 11.3812 18.9056 12.6469 18.4769 13.7954C18.0563 14.9439 17.4578 15.9347 16.6814 16.7677C15.9049 17.5927 14.9789 18.2316 13.9032 18.6846C12.8356 19.1375 11.6507 19.364 10.3485 19.364C8.99783 19.364 7.7442 19.1254 6.58763 18.6482C5.43914 18.171 4.43219 17.5037 3.56678 16.6464C2.70946 15.7891 2.0422 14.7862 1.56502 13.6377C1.08783 12.4811 0.849234 11.2315 0.849234 9.88894C0.849234 8.54634 1.08378 7.30484 1.55288 6.16444C2.03007 5.01595 2.69328 4.01305 3.54252 3.15572C4.39984 2.2984 5.3987 1.63115 6.5391 1.15396C7.6795 0.676771 8.921 0.438177 10.2636 0.438177C11.5172 0.438177 12.7304 0.656551 13.9032 1.0933C15.0759 1.53005 16.1233 2.15282 17.0453 2.96161L14.6311 5.37586ZM32.1258 17.6412C30.6214 18.7088 28.9755 19.2426 27.1881 19.2426C25.8617 19.2426 24.6687 18.9596 23.6092 18.3934C22.5578 17.8192 21.7247 17.0427 21.11 16.0641C20.5034 15.0854 20.2001 13.9814 20.2001 12.7521C20.2001 11.5793 20.4751 10.5319 21.0251 9.6099C21.5832 8.68788 22.3394 7.95996 23.2938 7.42616C24.2481 6.89235 25.3319 6.62545 26.5451 6.62545C27.7987 6.62545 28.9027 6.92066 29.8571 7.51108C30.8115 8.09341 31.5556 8.91029 32.0894 9.96173C32.6232 11.0051 32.8901 12.2142 32.8901 13.5892V13.9774H23.9489C24.0945 14.4546 24.329 14.8752 24.6525 15.2391C24.9841 15.595 25.3966 15.8781 25.89 16.0883C26.3914 16.2986 26.9616 16.4038 27.6006 16.4038C28.838 16.4038 29.9906 16.0034 31.0582 15.2027L32.1258 17.6412ZM23.7912 12.2061H29.6751C29.6104 11.6804 29.4446 11.2194 29.1777 10.8231C28.9189 10.4187 28.5752 10.1033 28.1465 9.8768C27.7259 9.65034 27.2528 9.53711 26.7271 9.53711C26.1933 9.53711 25.7161 9.65438 25.2955 9.88894C24.883 10.1235 24.5474 10.4389 24.2886 10.8352C24.0298 11.2315 23.864 11.6885 23.7912 12.2061ZM46.7088 19H43.227V12.6914C43.227 11.7694 43.0086 11.0496 42.5718 10.5319C42.1432 10.0143 41.5487 9.75548 40.7885 9.75548C40.2546 9.75548 39.7815 9.88489 39.369 10.1437C38.9646 10.3944 38.6492 10.7543 38.4227 11.2234C38.1963 11.6845 38.083 12.2385 38.083 12.8855V19H34.6012V6.86809H37.4158L37.5371 8.80919C37.9739 8.09746 38.5562 7.55556 39.2841 7.18352C40.012 6.81147 40.8532 6.62545 41.8075 6.62545C43.3281 6.62545 44.5251 7.09455 45.3986 8.03275C46.2721 8.96287 46.7088 10.2408 46.7088 11.8664V19ZM60.1029 17.6412C58.5986 18.7088 56.9527 19.2426 55.1653 19.2426C53.8388 19.2426 52.6459 18.9596 51.5863 18.3934C50.5349 17.8192 49.7019 17.0427 49.0872 16.0641C48.4806 15.0854 48.1773 13.9814 48.1773 12.7521C48.1773 11.5793 48.4523 10.5319 49.0022 9.6099C49.5603 8.68788 50.3165 7.95996 51.2709 7.42616C52.2253 6.89235 53.3091 6.62545 54.5223 6.62545C55.7759 6.62545 56.8799 6.92066 57.8343 7.51108C58.7887 8.09341 59.5327 8.91029 60.0665 9.96173C60.6004 11.0051 60.8673 12.2142 60.8673 13.5892V13.9774H51.926C52.0716 14.4546 52.3062 14.8752 52.6297 15.2391C52.9613 15.595 53.3738 15.8781 53.8671 16.0883C54.3686 16.2986 54.9388 16.4038 55.5777 16.4038C56.8152 16.4038 57.9677 16.0034 59.0353 15.2027L60.1029 17.6412ZM51.7683 12.2061H57.6523C57.5876 11.6804 57.4218 11.2194 57.1549 10.8231C56.8961 10.4187 56.5523 10.1033 56.1237 9.8768C55.7031 9.65034 55.23 9.53711 54.7042 9.53711C54.1704 9.53711 53.6932 9.65438 53.2727 9.88894C52.8602 10.1235 52.5245 10.4389 52.2657 10.8352C52.0069 11.2315 51.8411 11.6885 51.7683 12.2061ZM66.0602 19H62.5783V6.86809H65.6113L65.7326 8.96691C66.137 8.23091 66.687 7.65666 67.3826 7.24418C68.0781 6.83169 68.8748 6.62545 69.7726 6.62545C70.0314 6.62545 70.2902 6.64567 70.549 6.68611C70.8159 6.71846 71.0869 6.77103 71.3618 6.84383L70.9251 9.97386C70.3913 9.82019 69.8858 9.74335 69.4086 9.74335C68.7373 9.74335 68.1469 9.89702 67.6373 10.2044C67.1359 10.5036 66.7477 10.9242 66.4727 11.4661C66.1977 11.9999 66.0602 12.6267 66.0602 13.3465V19ZM82.924 19H79.8911L79.7091 17.5563C79.2642 18.0901 78.7143 18.5066 78.0591 18.8059C77.404 19.0971 76.6842 19.2426 75.8997 19.2426C75.0504 19.2426 74.2942 19.0809 73.631 18.7574C72.9678 18.4258 72.4461 17.9728 72.066 17.3986C71.6858 16.8163 71.4958 16.1571 71.4958 15.4211C71.4958 14.6446 71.702 13.9612 72.1145 13.3708C72.527 12.7804 73.0931 12.3194 73.813 11.9878C74.5409 11.6481 75.3659 11.4782 76.2879 11.4782C76.8298 11.4782 77.3717 11.5389 77.9136 11.6602C78.4635 11.7815 78.9731 11.9514 79.4422 12.1697V11.8543C79.4422 11.369 79.3047 10.9525 79.0297 10.6047C78.7628 10.2488 78.3908 9.97386 77.9136 9.77975C77.4445 9.58564 76.9187 9.48858 76.3364 9.48858C75.7783 9.48858 75.2243 9.57755 74.6743 9.75548C74.1325 9.93342 73.631 10.2003 73.17 10.5562L72.2237 7.8993C73.0406 7.47873 73.8655 7.1633 74.6986 6.95301C75.5398 6.73464 76.3526 6.62545 77.1371 6.62545C78.318 6.62545 79.3411 6.86 80.2065 7.3291C81.0719 7.79011 81.7392 8.44524 82.2083 9.29447C82.6854 10.1356 82.924 11.1345 82.924 12.2911V19ZM76.664 16.5615C77.125 16.5615 77.5658 16.4604 77.9864 16.2582C78.4069 16.056 78.7466 15.781 79.0054 15.4332C79.2723 15.0854 79.4139 14.7013 79.4301 14.2807V14.1958C79.0742 13.9531 78.6779 13.7671 78.2411 13.6377C77.8125 13.5002 77.3757 13.4315 76.9309 13.4315C76.2677 13.4315 75.7258 13.577 75.3052 13.8682C74.8846 14.1594 74.6743 14.5355 74.6743 14.9965C74.6743 15.2957 74.7593 15.5667 74.9291 15.8093C75.107 16.0439 75.3456 16.2299 75.6449 16.3674C75.9441 16.4968 76.2838 16.5615 76.664 16.5615ZM88.8692 19H85.1447V0.802134H88.8692V19Z" fill="#FFD36B"/>
<path d="M99.206 19H95.4694V4.06562H90.1071V0.802134H104.58V4.06562H99.206V19ZM109.3 19H105.818V6.86809H108.851L108.973 8.96691C109.377 8.23091 109.927 7.65666 110.623 7.24418C111.318 6.83169 112.115 6.62545 113.013 6.62545C113.271 6.62545 113.53 6.64567 113.789 6.68611C114.056 6.71846 114.327 6.77103 114.602 6.84383L114.165 9.97386C113.631 9.82019 113.126 9.74335 112.649 9.74335C111.977 9.74335 111.387 9.89702 110.877 10.2044C110.376 10.5036 109.988 10.9242 109.713 11.4661C109.438 11.9999 109.3 12.6267 109.3 13.3465V19ZM126.164 19H123.131L122.949 17.5563C122.504 18.0901 121.954 18.5066 121.299 18.8059C120.644 19.0971 119.924 19.2426 119.14 19.2426C118.29 19.2426 117.534 19.0809 116.871 18.7574C116.208 18.4258 115.686 17.9728 115.306 17.3986C114.926 16.8163 114.736 16.1571 114.736 15.4211C114.736 14.6446 114.942 13.9612 115.355 13.3708C115.767 12.7804 116.333 12.3194 117.053 11.9878C117.781 11.6481 118.606 11.4782 119.528 11.4782C120.07 11.4782 120.612 11.5389 121.154 11.6602C121.704 11.7815 122.213 11.9514 122.682 12.1697V11.8543C122.682 11.369 122.545 10.9525 122.27 10.6047C122.003 10.2488 121.631 9.97386 121.154 9.77975C120.685 9.58564 120.159 9.48858 119.576 9.48858C119.018 9.48858 118.464 9.57755 117.914 9.75548C117.373 9.93342 116.871 10.2003 116.41 10.5562L115.464 7.8993C116.281 7.47873 117.106 7.1633 117.939 6.95301C118.78 6.73464 119.593 6.62545 120.377 6.62545C121.558 6.62545 122.581 6.86 123.447 7.3291C124.312 7.79011 124.979 8.44524 125.448 9.29447C125.926 10.1356 126.164 11.1345 126.164 12.2911V19ZM119.904 16.5615C120.365 16.5615 120.806 16.4604 121.226 16.2582C121.647 16.056 121.987 15.781 122.246 15.4332C122.512 15.0854 122.654 14.7013 122.67 14.2807V14.1958C122.314 13.9531 121.918 13.7671 121.481 13.6377C121.053 13.5002 120.616 13.4315 120.171 13.4315C119.508 13.4315 118.966 13.577 118.545 13.8682C118.125 14.1594 117.914 14.5355 117.914 14.9965C117.914 15.2957 117.999 15.5667 118.169 15.8093C118.347 16.0439 118.586 16.2299 118.885 16.3674C119.184 16.4968 119.524 16.5615 119.904 16.5615ZM140.881 19H137.823L137.641 17.3501C137.124 17.9324 136.501 18.3934 135.773 18.7331C135.053 19.0728 134.265 19.2426 133.407 19.2426C132.299 19.2426 131.309 18.9717 130.435 18.4298C129.57 17.8798 128.886 17.1276 128.385 16.1733C127.883 15.2189 127.633 14.1391 127.633 12.934C127.633 11.7209 127.883 10.6411 128.385 9.69482C128.886 8.74045 129.57 7.99231 130.435 7.45042C131.309 6.90044 132.299 6.62545 133.407 6.62545C134.2 6.62545 134.936 6.77103 135.615 7.0622C136.303 7.34528 136.897 7.74159 137.399 8.25113V0.802134H140.881V19ZM134.305 16.1247C134.879 16.1247 135.397 15.9953 135.858 15.7365C136.327 15.4777 136.699 15.1259 136.974 14.681C137.257 14.2281 137.399 13.7145 137.399 13.1403V12.7035C137.399 12.1293 137.257 11.6198 136.974 11.1749C136.699 10.7301 136.327 10.3823 135.858 10.1316C135.397 9.87276 134.879 9.74335 134.305 9.74335C133.715 9.74335 133.185 9.88085 132.716 10.1558C132.247 10.4308 131.875 10.811 131.6 11.2962C131.333 11.7734 131.199 12.3194 131.199 12.934C131.199 13.5406 131.333 14.0866 131.6 14.5719C131.875 15.049 132.247 15.4292 132.716 15.7123C133.185 15.9872 133.715 16.1247 134.305 16.1247ZM154.517 17.6412C153.013 18.7088 151.367 19.2426 149.58 19.2426C148.253 19.2426 147.06 18.9596 146.001 18.3934C144.949 17.8192 144.116 17.0427 143.502 16.0641C142.895 15.0854 142.592 13.9814 142.592 12.7521C142.592 11.5793 142.867 10.5319 143.417 9.6099C143.975 8.68788 144.731 7.95996 145.685 7.42616C146.64 6.89235 147.723 6.62545 148.937 6.62545C150.19 6.62545 151.294 6.92066 152.249 7.51108C153.203 8.09341 153.947 8.91029 154.481 9.96173C155.015 11.0051 155.282 12.2142 155.282 13.5892V13.9774H146.34C146.486 14.4546 146.721 14.8752 147.044 15.2391C147.376 15.595 147.788 15.8781 148.282 16.0883C148.783 16.2986 149.353 16.4038 149.992 16.4038C151.23 16.4038 152.382 16.0034 153.45 15.2027L154.517 17.6412ZM146.183 12.2061H152.067C152.002 11.6804 151.836 11.2194 151.569 10.8231C151.31 10.4187 150.967 10.1033 150.538 9.8768C150.118 9.65034 149.644 9.53711 149.119 9.53711C148.585 9.53711 148.108 9.65438 147.687 9.88894C147.275 10.1235 146.939 10.4389 146.68 10.8352C146.421 11.2315 146.256 11.6885 146.183 12.2061ZM160.074 19H155.294L160.487 12.7885L155.561 6.86809H160.365L162.889 10.447L165.388 6.86809H170.156L165.267 12.7642L170.459 19H165.643L162.865 15.0571L160.074 19Z" fill="white"/>
</svg>
