<svg width="153" height="22" viewBox="0 0 158 27" fill="none" xmlns="http://www.w3.org/2000/svg">
<path d="M5.12207 26H0.0253906V1.09766H5.12207V26ZM10.9167 5.43066C10.2858 5.43066 9.75457 5.20931 9.32293 4.7666C8.89129 4.32389 8.67547 3.78711 8.67547 3.15625C8.67547 2.52539 8.89129 1.99414 9.32293 1.5625C9.75457 1.11979 10.2858 0.898438 10.9167 0.898438C11.5586 0.898438 12.0954 1.11979 12.527 1.5625C12.9697 1.99414 13.1911 2.52539 13.1911 3.15625C13.1911 3.78711 12.9697 4.32389 12.527 4.7666C12.0954 5.20931 11.5586 5.43066 10.9167 5.43066ZM13.3073 26H8.54266V9.39844H13.3073V26ZM28.3324 25.5684C27.0596 26.0775 25.8255 26.332 24.6302 26.332C23.3907 26.332 22.2949 26.0719 21.3431 25.5518C20.4024 25.0205 19.6664 24.2845 19.1351 23.3438C18.6039 22.3919 18.3382 21.2962 18.3382 20.0566V13.6484H15.433V9.39844H18.5873V5.24805H23.1029V9.39844H27.7015V13.6484H23.1029V19.1934C23.1029 20.1009 23.3519 20.8092 23.85 21.3184C24.348 21.8164 24.9678 22.0654 25.7093 22.0654C26.3845 22.0654 27.043 21.8551 27.6849 21.4346L28.3324 25.5684ZM45.7149 24.1406C43.6563 25.6016 41.404 26.332 38.958 26.332C37.1429 26.332 35.5105 25.9447 34.0606 25.1699C32.6218 24.3841 31.4818 23.3216 30.6407 21.9824C29.8106 20.6432 29.3955 19.1325 29.3955 17.4502C29.3955 15.8454 29.7718 14.4121 30.5245 13.1504C31.2881 11.8887 32.323 10.8926 33.6289 10.1621C34.9349 9.43164 36.418 9.06641 38.0782 9.06641C39.7937 9.06641 41.3044 9.47038 42.6104 10.2783C43.9164 11.0752 44.9346 12.193 45.6651 13.6318C46.3955 15.0596 46.7608 16.7142 46.7608 18.5957V19.127H34.5254C34.7246 19.7799 35.0456 20.3555 35.4883 20.8535C35.9421 21.3405 36.5065 21.7279 37.1817 22.0156C37.8679 22.3034 38.6482 22.4473 39.5225 22.4473C41.2159 22.4473 42.793 21.8994 44.2539 20.8037L45.7149 24.1406ZM34.3096 16.7031H42.3614C42.2728 15.9837 42.0459 15.3529 41.6807 14.8105C41.3265 14.2572 40.8562 13.8255 40.2696 13.5156C39.694 13.2057 39.0466 13.0508 38.3272 13.0508C37.5967 13.0508 36.9437 13.2113 36.3682 13.5322C35.8037 13.8532 35.3444 14.2848 34.9903 14.8271C34.6361 15.3695 34.4092 15.9948 34.3096 16.7031Z" fill="#FFD36B"/>
<path d="M59.8601 26H54.7468V5.56348H47.4089V1.09766H67.2146V5.56348H59.8601V26ZM73.6732 26H68.9086V9.39844H73.059L73.225 12.2705C73.7784 11.2633 74.531 10.4775 75.4828 9.91309C76.4346 9.34863 77.5248 9.06641 78.7533 9.06641C79.1075 9.06641 79.4617 9.09408 79.8158 9.14941C80.1811 9.19368 80.5518 9.26562 80.9281 9.36523L80.3305 13.6484C79.6 13.4382 78.9083 13.333 78.2553 13.333C77.3367 13.333 76.5287 13.5433 75.8314 13.9639C75.1452 14.3734 74.614 14.9489 74.2377 15.6904C73.8614 16.4209 73.6732 17.2786 73.6732 18.2637V26ZM96.7501 26H92.5997L92.3507 24.0244C91.7419 24.7549 90.9893 25.3249 90.0928 25.7344C89.1964 26.1328 88.2113 26.332 87.1378 26.332C85.9757 26.332 84.9408 26.1107 84.0333 25.668C83.1257 25.2142 82.4119 24.5944 81.8917 23.8086C81.3715 23.0117 81.1114 22.1097 81.1114 21.1025C81.1114 20.04 81.3936 19.1048 81.9581 18.2969C82.5225 17.4889 83.2973 16.8581 84.2823 16.4043C85.2784 15.9395 86.4073 15.707 87.669 15.707C88.4106 15.707 89.1521 15.79 89.8936 15.9561C90.6462 16.1221 91.3435 16.3545 91.9854 16.6533V16.2217C91.9854 15.5576 91.7973 14.9876 91.421 14.5117C91.0557 14.0247 90.5466 13.6484 89.8936 13.3828C89.2517 13.1172 88.5323 12.9844 87.7354 12.9844C86.9718 12.9844 86.2136 13.1061 85.461 13.3496C84.7195 13.5931 84.0333 13.9583 83.4024 14.4453L82.1075 10.8096C83.2253 10.234 84.3542 9.80241 85.4942 9.51465C86.6453 9.21582 87.7576 9.06641 88.8311 9.06641C90.447 9.06641 91.8471 9.38737 93.0313 10.0293C94.2156 10.6602 95.1287 11.5566 95.7706 12.7188C96.4236 13.8698 96.7501 15.2367 96.7501 16.8193V26ZM88.1837 22.6631C88.8145 22.6631 89.4177 22.5247 89.9932 22.248C90.5688 21.9714 91.0336 21.5951 91.3878 21.1191C91.753 20.6432 91.9467 20.1175 91.9688 19.542V19.4258C91.4818 19.0938 90.9395 18.8392 90.3419 18.6621C89.7553 18.474 89.1576 18.3799 88.5489 18.3799C87.6414 18.3799 86.8998 18.5791 86.3243 18.9775C85.7488 19.376 85.461 19.8906 85.461 20.5215C85.461 20.931 85.5772 21.3018 85.8096 21.6338C86.0531 21.9548 86.3796 22.2093 86.7891 22.3975C87.1986 22.5745 87.6635 22.6631 88.1837 22.6631ZM116.888 26H112.705L112.456 23.7422C111.747 24.5391 110.895 25.1699 109.899 25.6348C108.914 26.0996 107.835 26.332 106.662 26.332C105.146 26.332 103.79 25.9613 102.594 25.2197C101.41 24.4671 100.475 23.4378 99.7888 22.1318C99.1026 20.8258 98.7595 19.3483 98.7595 17.6992C98.7595 16.0391 99.1026 14.5615 99.7888 13.2666C100.475 11.9606 101.41 10.9368 102.594 10.1953C103.79 9.44271 105.146 9.06641 106.662 9.06641C107.747 9.06641 108.754 9.26562 109.683 9.66406C110.624 10.0514 111.438 10.5938 112.124 11.291V1.09766H116.888V26ZM107.89 22.0654C108.676 22.0654 109.385 21.8883 110.015 21.5342C110.657 21.18 111.166 20.6986 111.543 20.0898C111.93 19.4701 112.124 18.7673 112.124 17.9814V17.3838C112.124 16.598 111.93 15.9007 111.543 15.292C111.166 14.6833 110.657 14.2074 110.015 13.8643C109.385 13.5101 108.676 13.333 107.89 13.333C107.082 13.333 106.358 13.5212 105.716 13.8975C105.074 14.2738 104.565 14.7939 104.188 15.458C103.823 16.111 103.64 16.8581 103.64 17.6992C103.64 18.5293 103.823 19.2764 104.188 19.9404C104.565 20.5934 105.074 21.1136 105.716 21.501C106.358 21.8773 107.082 22.0654 107.89 22.0654ZM135.549 24.1406C133.491 25.6016 131.238 26.332 128.792 26.332C126.977 26.332 125.345 25.9447 123.895 25.1699C122.456 24.3841 121.316 23.3216 120.475 21.9824C119.645 20.6432 119.23 19.1325 119.23 17.4502C119.23 15.8454 119.606 14.4121 120.359 13.1504C121.122 11.8887 122.157 10.8926 123.463 10.1621C124.769 9.43164 126.252 9.06641 127.913 9.06641C129.628 9.06641 131.139 9.47038 132.445 10.2783C133.751 11.0752 134.769 12.193 135.499 13.6318C136.23 15.0596 136.595 16.7142 136.595 18.5957V19.127H124.36C124.559 19.7799 124.88 20.3555 125.323 20.8535C125.776 21.3405 126.341 21.7279 127.016 22.0156C127.702 22.3034 128.483 22.4473 129.357 22.4473C131.05 22.4473 132.627 21.8994 134.088 20.8037L135.549 24.1406ZM124.144 16.7031H132.196C132.107 15.9837 131.88 15.3529 131.515 14.8105C131.161 14.2572 130.691 13.8255 130.104 13.5156C129.528 13.2057 128.881 13.0508 128.162 13.0508C127.431 13.0508 126.778 13.2113 126.203 13.5322C125.638 13.8532 125.179 14.2848 124.825 14.8271C124.47 15.3695 124.244 15.9948 124.144 16.7031ZM143.153 26H136.612L143.718 17.5L136.978 9.39844H143.552L147.005 14.2959L150.425 9.39844H156.949L150.259 17.4668L157.364 26H150.774L146.972 20.6045L143.153 26Z" fill="white"/>
</svg>
