<svg width="16" height="19" viewBox="0 0 16 19" fill="none" xmlns="http://www.w3.org/2000/svg">
<path d="M4.07246 0.27832L6.83695 4.48954L7.91833 8.70072H6.23525L3.47075 4.48954L2.38934 0.27832H4.07246Z" fill="#EAEAEC"/>
<path d="M6.23523 8.70086H7.91835L7.23874 6.0542C6.43529 6.17177 5.67689 6.42999 4.98981 6.80362L6.23523 8.70086Z" fill="#D8D8DA"/>
<path d="M4.07245 0.27832L7.91831 8.70072H9.60143L5.75557 0.27832H4.07245Z" fill="#FD5C6F"/>
<path d="M0.706238 0.27832L4.5521 8.70072H6.23522L2.38932 0.27832H0.706238Z" fill="#FD5C6F"/>
<path d="M12.3827 0.27832L9.61818 4.48954L8.5368 8.70072H10.2199L12.9844 4.48954L14.0658 0.27832H12.3827Z" fill="#EAEAEC"/>
<path d="M9.21642 6.0542L8.5368 8.70086H10.2199L11.4654 6.80366C10.7783 6.42999 10.0199 6.17177 9.21642 6.0542Z" fill="#D8D8DA"/>
<path d="M6.75079 6.1439L7.91828 8.70071H9.6014L8.36069 5.98362C8.31638 5.98278 8.27202 5.98193 8.22748 5.98193C7.72049 5.98193 7.22643 6.03816 6.75079 6.1439Z" fill="#E92740"/>
<path d="M4.5521 8.70071H6.23522L5.29721 6.64648C4.82922 6.87093 4.39091 7.14754 3.98944 7.46847L4.5521 8.70071Z" fill="#E92740"/>
<path d="M12.3827 0.27832L8.53682 8.70072H6.8537L10.6996 0.27832H12.3827Z" fill="#4695FD"/>
<path d="M15.7489 0.27832L11.903 8.70072H10.2199L14.0658 0.27832H15.7489Z" fill="#4695FD"/>
<path d="M9.7043 6.1439C9.22866 6.03816 8.7346 5.98193 8.22758 5.98193C8.18304 5.98193 8.13872 5.98274 8.0944 5.98362L6.8537 8.70071H8.53682L9.7043 6.1439Z" fill="#0D84FD"/>
<path d="M11.1579 6.64648L10.2199 8.70071H11.903L12.4657 7.46847C12.0642 7.14754 11.6259 6.87093 11.1579 6.64648Z" fill="#0D84FD"/>
<path d="M8.22756 18.4817C11.3759 18.4817 13.9281 15.9295 13.9281 12.7811C13.9281 9.6328 11.3759 7.08057 8.22756 7.08057C5.07921 7.08057 2.52698 9.6328 2.52698 12.7811C2.52698 15.9295 5.07921 18.4817 8.22756 18.4817Z" fill="#FDB058"/>
<path d="M8.22755 17.1176C10.6225 17.1176 12.5639 15.1761 12.5639 12.7812C12.5639 10.3863 10.6225 8.44482 8.22755 8.44482C5.83264 8.44482 3.89117 10.3863 3.89117 12.7812C3.89117 15.1761 5.83264 17.1176 8.22755 17.1176Z" fill="#FDE475"/>
<path d="M7.89626 11.3665L7.68086 11.5002C7.61402 11.5447 7.54714 11.5596 7.49516 11.5596C7.27972 11.5596 7.13116 11.3293 7.13116 11.099C7.13116 10.9431 7.19805 10.7945 7.3466 10.7054L8.32714 10.1111C8.38655 10.074 8.46083 10.0591 8.54255 10.0591C8.78026 10.0591 9.0551 10.2002 9.0551 10.4231V15.1476C9.0551 15.3853 8.76542 15.5041 8.4757 15.5041C8.18598 15.5041 7.89626 15.3853 7.89626 15.1476V11.3665Z" fill="#FDB058"/>
</svg>
