<svg width="25" height="24" viewBox="0 0 25 24" fill="none" xmlns="http://www.w3.org/2000/svg">
<path d="M8.70898 14.33C8.70898 15.62 9.69898 16.66 10.929 16.66H13.439C14.509 16.66 15.379 15.75 15.379 14.63C15.379 13.41 14.849 12.98 14.059 12.7L10.029 11.3C9.23898 11.02 8.70898 10.59 8.70898 9.37003C8.70898 8.25003 9.57898 7.34003 10.649 7.34003H13.159C14.389 7.34003 15.379 8.38003 15.379 9.67003" stroke="#ffffff" stroke-width="1.5" stroke-linecap="round" stroke-linejoin="round"/>
<path d="M12.0391 6V18" stroke="#ffffff" stroke-width="1.5" stroke-linecap="round" stroke-linejoin="round"/>
<path d="M2.03906 9C2.03906 4 4.03906 2 9.03906 2H15.0391C20.0391 2 22.0391 4 22.0391 9V15C22.0391 20 20.0391 22 15.0391 22H9.03906C4.03906 22 2.03906 20 2.03906 15V13.03" stroke="#ffffff" stroke-width="1.5" stroke-linecap="round" stroke-linejoin="round"/>
</svg>